<?xml version="1.0" encoding="utf-8"?>
<!-- Generator: Adobe Illustrator 27.5.0, SVG Export Plug-In . SVG Version: 6.00 Build 0)  -->
<svg version="1.1" xmlns="http://www.w3.org/2000/svg" xmlns:xlink="http://www.w3.org/1999/xlink" x="0px" y="0px"
	 viewBox="0 0 500 500" style="enable-background:new 0 0 500 500;" xml:space="preserve">
<g id="BACKGROUND">
	<rect style="fill:#3DC1C6;" width="500" height="500"/>
</g>
<g id="OBJECTS">
	<g>
		<g>
			<g>
				
					<path style="fill:none;stroke:#FAF2E6;stroke-width:1.8666;stroke-linecap:round;stroke-miterlimit:10;stroke-dasharray:5.5997;" d="
					M194.154,305.205c-16.969-7.894-31.987-19.275-44.135-33.222c-10.137-11.639-18.275-25.065-23.879-39.743
					c-5.604-14.678-8.673-30.608-8.673-47.255c0-36.595,14.833-69.725,38.815-93.707s57.112-38.815,93.707-38.815
					s69.726,14.833,93.707,38.815c23.982,23.982,38.815,57.112,38.815,93.707c0,17.182-3.27,33.601-9.221,48.667
					c-5.952,15.066-14.585,28.78-25.311,40.554c-12.119,13.302-26.91,24.128-43.524,31.627"/>
				<g>
					
						<ellipse transform="matrix(0.9239 -0.3827 0.3827 0.9239 -46.388 57.7484)" style="fill:#3DC1C6;stroke:#FAF2E6;stroke-width:3.3198;stroke-miterlimit:10;" cx="121.966" cy="145.478" rx="32.864" ry="32.864"/>
					<g>
						<g>
							<g>
								<g>
									<path style="fill:#FAF2E6;" d="M135.93,158.41c-0.236,0.236-0.561,0.383-0.92,0.387l-6.622,0.077
										c-0.356,0.004-0.699-0.135-0.951-0.387l-20.88-20.88c-0.516-0.516-0.516-1.354,0-1.87l6.701-6.701
										c0.516-0.516,1.354-0.517,1.87,0l20.881,20.88c0.252,0.252,0.391,0.595,0.387,0.951l-0.078,6.623
										C136.313,157.849,136.165,158.174,135.93,158.41z M128.913,156.223l4.774-0.056l0.056-4.775l-19.552-19.552l-4.83,4.83
										L128.913,156.223z"/>
								</g>
							</g>
							<g>
								<g>
									<path style="fill:#FAF2E6;" d="M110.141,125.92l-6.701,6.701c-0.516,0.516-1.354,0.516-1.87,0
										c-0.516-0.516-0.516-1.354,0-1.87l6.701-6.701c0.516-0.516,1.354-0.516,1.87,0
										C110.657,124.565,110.657,125.403,110.141,125.92z"/>
								</g>
							</g>
							<g>
								<g>
									<path style="fill:#FAF2E6;" d="M111.777,134.256c-0.516,0.516-1.354,0.516-1.87,0l-4.986-4.986
										c-0.516-0.516-0.516-1.354,0-1.87c0.516-0.516,1.354-0.516,1.87,0l4.986,4.986
										C112.293,132.902,112.293,133.74,111.777,134.256z"/>
								</g>
							</g>
							<g>
								<g>
									<path style="fill:#FAF2E6;" d="M140.76,163.24c-0.516,0.516-1.354,0.516-1.87,0l-4.986-4.986
										c-0.516-0.516-0.516-1.354,0-1.87c0.516-0.516,1.354-0.516,1.87,0l4.986,4.986
										C141.276,161.886,141.276,162.724,140.76,163.24z"/>
								</g>
							</g>
						</g>
						<g>
							<g>
								<path style="fill:#FAF2E6;" d="M128.899,144.677l-6.701,6.701c-0.516,0.516-1.354,0.516-1.87,0
									c-0.516-0.516-0.516-1.354,0-1.87l6.701-6.701c0.516-0.516,1.354-0.516,1.87,0
									C129.415,143.323,129.415,144.161,128.899,144.677z"/>
							</g>
						</g>
					</g>
				</g>
				<g>
					
						<circle style="fill:#3DC1C6;stroke:#FAF2E6;stroke-width:3.3198;stroke-miterlimit:10;" cx="366.112" cy="245.705" r="32.864"/>
				</g>
				<g>
					<g>
						<path style="fill:#FAF2E6;" d="M372.704,259c-0.637,0-1.199-0.417-1.382-1.029l-5.51-18.365l-4.908,13.007
							c-0.197,0.521-0.676,0.883-1.231,0.929c-0.552,0.047-1.087-0.231-1.367-0.713l-3.151-5.416h-9.113
							c-0.797,0-1.444-0.647-1.444-1.444c0-0.797,0.647-1.444,1.444-1.444h9.944c0.514,0,0.989,0.274,1.247,0.718l2.041,3.509
							l5.343-14.159c0.219-0.578,0.758-0.965,1.401-0.933c0.618,0.021,1.155,0.435,1.332,1.028l5.227,17.422l1.613-6.453
							c0.161-0.643,0.739-1.093,1.401-1.093h10.905c0.797,0,1.444,0.647,1.444,1.444c0,0.797-0.647,1.444-1.444,1.444h-9.778
							l-2.613,10.454c-0.158,0.63-0.717,1.078-1.367,1.092C372.727,259,372.715,259,372.704,259z"/>
					</g>
				</g>
				<g>
					<circle style="fill:#3DC1C6;stroke:#FAF2E6;stroke-width:3.3198;stroke-miterlimit:10;" cx="194.398" cy="64.886" r="32.864"/>
					<g>
						<g>
							<g>
								<g>
									<path style="fill:#FAF2E6;" d="M198.599,53.321c-1.943,0-3.525-1.581-3.525-3.525c0-1.943,1.581-3.525,3.525-3.525
										s3.525,1.582,3.525,3.525C202.123,51.739,200.542,53.321,198.599,53.321z M198.599,48.097
										c-0.937,0-1.699,0.762-1.699,1.699c0,0.937,0.762,1.699,1.699,1.699c0.936,0,1.699-0.762,1.699-1.699
										C200.297,48.859,199.535,48.097,198.599,48.097z"/>
								</g>
							</g>
							<g>
								<g>
									<path style="fill:#FAF2E6;" d="M185.538,86.475c-4.708,0-8.539-3.831-8.539-8.54c0-2.581,1.161-4.999,3.139-6.615V51.596
										c0-2.978,2.422-5.401,5.4-5.401c2.978,0,5.402,2.423,5.402,5.401v19.724c1.979,1.616,3.14,4.035,3.14,6.615
										C194.079,82.645,190.248,86.475,185.538,86.475z M185.538,49.083c-1.386,0-2.513,1.127-2.513,2.514v20.448
										c0,0.48-0.239,0.929-0.637,1.197c-1.566,1.054-2.501,2.809-2.501,4.693c0,3.117,2.536,5.653,5.652,5.653
										c3.118,0,5.654-2.536,5.654-5.653c0-1.884-0.935-3.639-2.502-4.693c-0.398-0.268-0.637-0.717-0.637-1.197V51.596
										C188.053,50.21,186.925,49.083,185.538,49.083z M181.581,72.045h0.01H181.581z"/>
								</g>
							</g>
							<g>
								<g>
									<path style="fill:#FAF2E6;" d="M215.423,57.829c0,0.419-0.104,0.873-0.311,1.361c-0.206,0.488-0.532,0.968-0.975,1.438
										c-0.444,0.471-1.01,0.853-1.699,1.146c-0.69,0.293-1.493,0.44-2.409,0.44c-0.695,0-1.327-0.066-1.896-0.198
										c-0.569-0.132-1.086-0.337-1.551-0.615c-0.464-0.279-0.891-0.646-1.28-1.101c-0.348-0.413-0.645-0.876-0.89-1.388
										c-0.246-0.512-0.43-1.059-0.553-1.64c-0.124-0.581-0.185-1.198-0.185-1.852c0-1.061,0.154-2.01,0.463-2.849
										c0.309-0.839,0.751-1.557,1.326-2.153c0.575-0.596,1.249-1.05,2.022-1.362c0.773-0.312,1.597-0.467,2.472-0.467
										c1.067,0,2.016,0.213,2.848,0.638c0.834,0.425,1.471,0.952,1.915,1.577c0.443,0.626,0.665,1.218,0.665,1.775
										c0,0.306-0.107,0.575-0.323,0.809c-0.216,0.233-0.477,0.35-0.783,0.35c-0.341,0-0.598-0.081-0.768-0.243
										c-0.171-0.162-0.361-0.44-0.571-0.836c-0.347-0.653-0.756-1.142-1.226-1.465c-0.471-0.324-1.05-0.485-1.74-0.485
										c-1.096,0-1.97,0.416-2.62,1.249c-0.651,0.833-0.976,2.016-0.976,3.55c0,1.025,0.144,1.877,0.432,2.557
										c0.287,0.68,0.695,1.188,1.222,1.523c0.527,0.336,1.144,0.503,1.851,0.503c0.767,0,1.416-0.19,1.946-0.571
										c0.53-0.381,0.931-0.939,1.199-1.676c0.115-0.347,0.255-0.631,0.423-0.85c0.168-0.219,0.437-0.328,0.809-0.328
										c0.317,0,0.59,0.111,0.817,0.333C215.309,57.224,215.423,57.5,215.423,57.829z"/>
									<path style="fill:#FAF2E6;" d="M210.03,62.697c-0.729,0-1.403-0.071-2.005-0.21c-0.615-0.143-1.183-0.368-1.69-0.672
										c-0.508-0.305-0.979-0.709-1.399-1.201c-0.374-0.444-0.696-0.946-0.958-1.493c-0.26-0.543-0.459-1.132-0.59-1.749
										c-0.13-0.609-0.195-1.265-0.195-1.951c0-1.113,0.166-2.127,0.492-3.015c0.33-0.897,0.812-1.678,1.431-2.321
										c0.62-0.642,1.356-1.138,2.188-1.474c1.836-0.741,4.084-0.647,5.719,0.188c0.898,0.459,1.601,1.04,2.088,1.728
										c0.501,0.707,0.754,1.398,0.754,2.054c0,0.429-0.151,0.811-0.451,1.135c-0.632,0.684-1.729,0.612-2.235,0.131
										c-0.21-0.199-0.427-0.513-0.665-0.958c-0.309-0.582-0.67-1.018-1.074-1.295c-0.392-0.27-0.871-0.401-1.467-0.401
										c-0.949,0-1.682,0.348-2.241,1.064c-0.579,0.743-0.873,1.837-0.873,3.254c0,0.955,0.133,1.753,0.394,2.37
										c0.247,0.585,0.596,1.024,1.037,1.305c0.453,0.288,0.974,0.428,1.593,0.428c0.67,0,1.216-0.157,1.665-0.48
										c0.45-0.322,0.795-0.81,1.029-1.45c0.126-0.383,0.293-0.717,0.492-0.977c0.181-0.236,0.534-0.516,1.191-0.516
										c0.445,0,0.833,0.158,1.152,0.469c0.32,0.311,0.488,0.716,0.488,1.172c0,0.48-0.117,1.001-0.348,1.549
										c-0.228,0.537-0.587,1.069-1.068,1.581c-0.489,0.517-1.115,0.94-1.86,1.259C211.88,62.536,211.006,62.697,210.03,62.697z"
										/>
								</g>
							</g>
						</g>
						<g>
							<g>
								<path style="fill:#FAF2E6;" d="M189.448,58.38h-3.46c-0.797,0-1.444-0.647-1.444-1.444c0-0.797,0.647-1.444,1.444-1.444
									h3.46c0.797,0,1.444,0.647,1.444,1.444C190.892,57.734,190.245,58.38,189.448,58.38z"/>
							</g>
						</g>
						<g>
							<g>
								<path style="fill:#FAF2E6;" d="M189.448,64.231h-3.46c-0.797,0-1.444-0.647-1.444-1.444c0-0.797,0.647-1.444,1.444-1.444
									h3.46c0.797,0,1.444,0.647,1.444,1.444C190.892,63.584,190.245,64.231,189.448,64.231z"/>
							</g>
						</g>
					</g>
				</g>
				<g>
					<circle style="fill:#3DC1C6;stroke:#FAF2E6;stroke-width:3.3198;stroke-miterlimit:10;" cx="304.043" cy="64.886" r="32.864"/>
					<g>
						<g>
							<g>
								<path style="fill:#FAF2E6;" d="M303.983,58.336c-0.797,0-1.444-0.647-1.444-1.444v-8.711c0-0.797,0.647-1.444,1.444-1.444
									c0.797,0,1.444,0.647,1.444,1.444v8.711C305.427,57.69,304.78,58.336,303.983,58.336z"/>
							</g>
						</g>
						<g>
							<g>
								<path style="fill:#FAF2E6;" d="M319.375,80.02c-2.154,0-4.725-0.86-6.91-3.044c-3.242-3.241-3.474-5.188-3.435-7.22
									l0.005-0.416v-7.533c0-0.797,0.647-1.444,1.444-1.444s1.444,0.647,1.444,1.444l-0.006,8.005
									c-0.026,1.334-0.047,2.487,2.59,5.124c2.121,2.12,4.786,2.587,6.32,1.95c0.636-0.264,0.958-0.657,0.958-1.17V61.882
									c0-3.874-7.701-9.588-9.224-9.868c-0.096,0.095-0.265,0.62-0.28,0.924l0.002,4.374c0,0.797-0.647,1.444-1.444,1.444h-13.351
									c-0.797,0-1.444-0.647-1.444-1.444v-4.45c-0.024-0.301-0.2-0.765-0.318-0.84c-1.482,0.273-9.184,5.987-9.184,9.861v13.832
									c0,0.513,0.322,0.906,0.958,1.17c1.537,0.637,4.201,0.171,6.32-1.95c2.637-2.637,2.616-3.79,2.59-5.125l-0.006-0.47v-7.533
									c0-0.797,0.647-1.444,1.444-1.444s1.444,0.647,1.444,1.444l0.005,7.949c0.039,2.033-0.193,3.978-3.435,7.221
									c-3.158,3.157-7.121,3.545-9.466,2.576c-1.716-0.711-2.741-2.146-2.741-3.837V61.882c0-5.784,9.679-12.75,12.028-12.75
									c2.098,0,3.153,1.894,3.246,3.653l0.001,3.083h10.465v-3.007c0.095-1.835,1.15-3.729,3.248-3.729
									c2.349,0,12.028,6.966,12.028,12.75v13.832c0,1.691-1.025,3.126-2.741,3.837C321.208,79.85,320.333,80.02,319.375,80.02z"/>
							</g>
						</g>
					</g>
				</g>
				<g>
					
						<ellipse transform="matrix(0.9239 -0.3827 0.3827 0.9239 -26.896 155.7411)" style="fill:#3DC1C6;stroke:#FAF2E6;stroke-width:3.3198;stroke-miterlimit:10;" cx="378.034" cy="145.478" rx="32.864" ry="32.864"/>
					<g>
						<g>
							<g>
								<path style="fill:#FAF2E6;" d="M388.801,164.169h-21.26c-1.648,0-3.153-0.903-3.927-2.357
									c-0.775-1.454-0.688-3.206,0.231-4.575l8.793-13.107v-12.503c-1.393-0.631-2.336-2.021-2.336-3.634v-1.711
									c0-2.21,1.798-4.008,4.007-4.008c0.006,0,0.012,0.001,0.018,0.001l7.712,0.096c2.191,0,3.989,1.798,3.989,4.007v1.712
									c0,1.611-0.94,3-2.329,3.632l0.004,0.784v11.626l8.793,13.107c0.918,1.369,1.006,3.121,0.231,4.575
									C391.954,163.266,390.449,164.169,388.801,164.169z M374.303,125.161c-0.614,0.004-1.113,0.505-1.113,1.121v1.711
									c0,0.577,0.439,1.051,1.021,1.103c0.745,0.067,1.315,0.69,1.315,1.438v14.036c0,0.286-0.086,0.566-0.245,0.804
									l-9.039,13.472c-0.327,0.488-0.358,1.09-0.081,1.608c0.276,0.518,0.793,0.829,1.38,0.829h21.26
									c0.587,0,1.104-0.31,1.38-0.829c0.277-0.519,0.246-1.12-0.081-1.608l-9.039-13.472c-0.159-0.237-0.245-0.517-0.245-0.804
									l-0.01-13.932c-0.004-0.75,0.567-1.378,1.315-1.445c0.581-0.053,1.021-0.527,1.021-1.103v-1.712
									c0-0.618-0.503-1.12-1.12-1.12L374.303,125.161z"/>
							</g>
						</g>
					</g>
				</g>
				<g>
					
						<circle style="fill:#3DC1C6;stroke:#FAF2E6;stroke-width:3.3198;stroke-miterlimit:10;" cx="132.027" cy="245.705" r="32.864"/>
					<g>
						<g>
							<g>
								<path style="fill:#FAF2E6;" d="M141.635,267.701c-0.06,0-0.12-0.003-0.181-0.011c-0.791-0.099-1.353-0.82-1.254-1.611
									c0.062-0.51,1.395-12.614-9.387-18.775c-12.532-7.161-9.993-21.815-9.965-21.962c0.144-0.783,0.895-1.301,1.681-1.158
									c0.784,0.145,1.302,0.896,1.159,1.679c-0.096,0.53-2.168,12.805,8.559,18.935c12.477,7.131,10.837,21.495,10.819,21.639
									C142.975,267.166,142.352,267.701,141.635,267.701z"/>
							</g>
						</g>
						<g>
							<g>
								<path style="fill:#FAF2E6;" d="M122.122,267.701c-0.717,0-1.339-0.534-1.43-1.265c-0.017-0.144-1.658-14.508,10.82-21.639
									c10.773-6.157,8.582-18.806,8.559-18.933c-0.145-0.784,0.374-1.537,1.158-1.681c0.786-0.147,1.537,0.374,1.681,1.158
									c0.028,0.147,2.566,14.801-9.964,21.962c-10.828,6.187-9.403,18.65-9.388,18.775c0.099,0.791-0.463,1.512-1.254,1.611
									C122.242,267.697,122.182,267.701,122.122,267.701z"/>
							</g>
						</g>
						<g>
							<g>
								<path style="fill:#FAF2E6;" d="M141.094,234.904H127.72c-0.797,0-1.444-0.647-1.444-1.444c0-0.797,0.647-1.444,1.444-1.444
									h13.374c0.797,0,1.444,0.647,1.444,1.444C142.538,234.258,141.891,234.904,141.094,234.904z"/>
							</g>
						</g>
						<g>
							<g>
								<path style="fill:#FAF2E6;" d="M138.306,241.159h-12.75c-0.797,0-1.444-0.647-1.444-1.444s0.647-1.444,1.444-1.444h12.75
									c0.797,0,1.444,0.647,1.444,1.444S139.103,241.159,138.306,241.159z"/>
							</g>
						</g>
						<g>
							<g>
								<path style="fill:#FAF2E6;" d="M138.225,253.668h-12.589c-0.797,0-1.444-0.647-1.444-1.444c0-0.797,0.647-1.444,1.444-1.444
									h12.589c0.797,0,1.444,0.647,1.444,1.444C139.669,253.021,139.022,253.668,138.225,253.668z"/>
							</g>
						</g>
						<g>
							<g>
								<path style="fill:#FAF2E6;" d="M135.82,259.923h-12.732c-0.797,0-1.444-0.647-1.444-1.444s0.647-1.444,1.444-1.444h12.732
									c0.797,0,1.444,0.647,1.444,1.444S136.617,259.923,135.82,259.923z"/>
							</g>
						</g>
					</g>
				</g>
			</g>
			<g>
				<ellipse style="fill:#3DC1C6;" cx="250" cy="455.801" rx="107.571" ry="12.178"/>
				<g>
					<g>
						<g>
							<path style="fill:#F6B44B;" d="M212.859,352.928l-0.899,84.034c0,0,5.991,2.853,11.126,3.138
								c3.138-15.691,6.32-86.602,6.32-86.602L212.859,352.928z"/>
							<path style="fill:#5F140F;" d="M227.002,438.334c0,0-16.785-3.534-19.141-2.945c-2.356,0.589-7.951,7.951-9.129,8.834
								c-7.067-1.178-20.613,1.178-20.613,12.368c26.208,0,27.681,0,27.681,0s6.184-2.356,6.184-0.589c0,1.767,0,1.767,0,1.767
								h14.135C226.118,457.769,229.063,444.223,227.002,438.334z"/>
							<path style="fill:#F6B44B;" d="M283.406,352.928l0.899,84.034c0,0-5.991,2.853-11.126,3.138
								c-3.138-15.691-6.32-86.602-6.32-86.602L283.406,352.928z"/>
							<path style="fill:#5F140F;" d="M269.263,438.334c0,0,16.785-3.534,19.141-2.945c2.356,0.589,7.951,7.951,9.129,8.834
								c7.067-1.178,20.613,1.178,20.613,12.368c-26.208,0-27.681,0-27.681,0s-6.184-2.356-6.184-0.589c0,1.767,0,1.767,0,1.767
								h-14.135C270.146,457.769,267.202,444.223,269.263,438.334z"/>
							<path style="fill:#2C0107;" d="M218.781,230.426l-10.92,197.601c0,0,12.368,5.889,22.969,6.478
								c6.478-32.392,22.11-202.901,22.11-202.901L218.781,230.426z"/>
							<path style="fill:#2C0107;" d="M277.484,230.426l10.92,197.601c0,0-12.368,5.889-22.969,6.478
								c-6.479-32.392-22.11-202.901-22.11-202.901L277.484,230.426z"/>
							<polyline style="fill:#2C0107;" points="256.346,231.604 222.187,230.426 222.187,306.419 275.781,306.714 275.781,230.426 
								241.622,231.604 							"/>
						</g>
						<path style="fill:#210006;" d="M212.899,336.863l5.882-106.437l3.406,0.117v-0.117l26.797,0.924l26.797-0.924v0.059
							l1.703-0.059l5.882,106.437h-7.197c-8.909,0-16.131-7.222-16.131-16.131v-27.012c-7.727,0.792-15.513,0.808-23.242,0.051
							v26.961c0,8.909-7.222,16.131-16.131,16.131H212.899z"/>
					</g>
					<g>
						<g>
							<path style="fill:#F16781;" d="M278.011,276.545c0-5.19-0.013-75.868-0.497-79.855c-0.484-3.987-1.437-7.358-3.318-10.079
								c-1.881-2.721-4.689-4.794-8.88-6.186c-4.192-1.392-9.767-2.104-17.183-2.104c-7.416,0-12.992,0.712-17.183,2.104
								c-4.192,1.392-7,3.465-8.88,6.186c-1.881,2.721-2.835,6.092-3.318,10.079c-0.484,3.987-0.497,74.665-0.497,79.855l0,0
								C237.889,281.302,258.376,281.302,278.011,276.545L278.011,276.545z"/>
							<path style="fill:#D14768;" d="M230.949,180.425c2.024-0.672,4.374-1.184,7.095-1.536v100.818
								c-6.649-0.53-13.267-1.582-19.79-3.163l0,0c0-5.19,0.013-75.867,0.497-79.855c0.484-3.987,1.437-7.357,3.318-10.079
								C223.95,183.89,226.757,181.817,230.949,180.425z"/>
							<path style="fill:#D14768;" d="M259.301,179.04c2.267,0.342,4.264,0.803,6.015,1.385c4.192,1.392,6.999,3.465,8.88,6.186
								c1.881,2.722,2.835,6.092,3.318,10.079c0.484,3.987,0.497,74.665,0.497,79.855l0,0c-6.171,1.495-12.425,2.519-18.711,3.074
								V179.04z"/>
							<g>
								<g>
									<path style="fill:#5F140F;" d="M248.408,190.827L248.408,190.827c7.024,0,12.718-5.694,12.718-12.718v-20.254h-25.435
										v20.254C235.691,185.133,241.385,190.827,248.408,190.827z"/>
									<g>
										<g>
											<path style="fill:#5F140F;" d="M273.301,128.155h-7.905v27.29c0,2.183,1.77,3.952,3.952,3.952l0,0
												c2.183,0,3.952-1.77,3.952-3.952V128.155z"/>
											<path style="fill:#5F140F;" d="M231.421,128.155h-7.905v27.29c0,2.183,1.77,3.952,3.952,3.952l0,0
												c2.183,0,3.952-1.77,3.952-3.952V128.155z"/>
										</g>
										<path style="fill:#5F140F;" d="M223.577,142.653v-14.402c0-17.843,49.664-17.843,49.664,0v14.402H223.577z"/>
										<ellipse style="fill:#82211A;" cx="248.409" cy="148.603" rx="22.645" ry="29.462"/>
										<ellipse style="fill:#82211A;" cx="248.409" cy="148.603" rx="22.645" ry="29.462"/>
										<path style="fill:#5F140F;" d="M268.566,121.935v4.011c0,14.485-40.315,14.485-40.315,0l0-4.011
											C228.251,115.384,268.566,115.384,268.566,121.935z"/>
									</g>
									<g>
										<g>
											<circle style="fill:#82211A;" cx="222.294" cy="156.053" r="9.51"/>
											<g>
												<path style="fill:#5F140F;" d="M219.431,150.736c0.831-0.19,1.729-0.122,2.563,0.152c0.84,0.268,1.61,0.757,2.245,1.379
													c0.623,0.634,1.112,1.404,1.381,2.245c0.275,0.835,0.342,1.732,0.151,2.564c-0.37-1.652-1.082-3.065-2.182-4.158
													C222.498,151.816,221.083,151.104,219.431,150.736z"/>
											</g>
										</g>
										<g>
											<circle style="fill:#82211A;" cx="274.523" cy="156.053" r="9.51"/>
											<g>
												<path style="fill:#5F140F;" d="M277.386,150.736c-1.652,0.368-3.067,1.08-4.158,2.182
													c-1.1,1.093-1.812,2.506-2.182,4.158c-0.191-0.831-0.124-1.729,0.151-2.564c0.268-0.84,0.757-1.61,1.38-2.245
													c0.635-0.622,1.405-1.111,2.245-1.379C275.657,150.614,276.555,150.546,277.386,150.736z"/>
											</g>
										</g>
									</g>
									<g>
										<g>
											<path style="fill:#2C0107;" d="M258.541,150.674L258.541,150.674c-0.595,0-1.077-0.482-1.077-1.077v-2.753
												c0-0.595,0.482-1.077,1.077-1.077l0,0c0.595,0,1.077,0.482,1.077,1.077v2.753
												C259.618,150.192,259.136,150.674,258.541,150.674z"/>
										</g>
										<g>
											<path style="fill:#2C0107;" d="M238.129,150.674L238.129,150.674c0.595,0,1.077-0.482,1.077-1.077v-2.753
												c0-0.595-0.482-1.077-1.077-1.077l0,0c-0.595,0-1.077,0.482-1.077,1.077v2.753
												C237.051,150.192,237.534,150.674,238.129,150.674z"/>
										</g>
									</g>
									<g>
										<path style="fill:#2C0107;" d="M254.885,144.03h7.81c1.105,0,2-0.895,2-2l0,0c0-1.105-0.895-2-2-2h-7.81
											c-1.105,0-2,0.895-2,2l0,0C252.885,143.135,253.78,144.03,254.885,144.03z"/>
										<path style="fill:#2C0107;" d="M235.265,144.03h7.81c1.105,0,2-0.895,2-2l0,0c0-1.105-0.896-2-2-2h-7.81
											c-1.105,0-2,0.895-2,2l0,0C233.265,143.135,234.161,144.03,235.265,144.03z"/>
									</g>
								</g>
								<g>
									<path style="fill:#CEC2B2;" d="M260.794,169.578c4.169-1.48,7.341-4.402,7.341-4.402s0.202,1.742-0.742,2.855
										c-0.944,1.113-3.056,2.424-5.853,2.963C258.743,171.532,260.794,169.578,260.794,169.578z"/>
									<path style="fill:#CEC2B2;" d="M235.997,169.578c-4.169-1.48-7.341-4.402-7.341-4.402s-0.202,1.742,0.742,2.855
										c0.944,1.113,3.056,2.424,5.853,2.963C238.048,171.532,235.997,169.578,235.997,169.578z"/>
									<path style="fill:#CEC2B2;" d="M256.79,155.821c8.646-4.522,14.348-9.606,14.348-9.606s1.303,1.441-0.276,3.177
										c-1.579,1.736-5.685,4.54-11.706,7.158C253.134,159.168,256.79,155.821,256.79,155.821z"/>
									<path style="fill:#CEC2B2;" d="M239.813,155.821c-8.646-4.522-14.348-9.606-14.348-9.606s-1.303,1.441,0.276,3.177
										c1.579,1.736,5.685,4.54,11.706,7.158C243.469,159.168,239.813,155.821,239.813,155.821z"/>
									<g>
										<g>
											<path style="fill:#CEC2B2;" d="M238.085,177.441c-1.29-1.062-2.449-2.461-3.217-4.268
												c-0.768-1.807-1.145-4.022-0.871-6.717c0.236-2.324,1.007-4.452,2.072-6.361c1.064-1.909,2.422-3.599,3.831-5.047
												c0.083-0.085,0.171-0.173,0.262-0.263c2.197-2.152,5.171-3.327,8.246-3.327l0,0c3.076,0,6.049,1.175,8.246,3.327
												c0.091,0.09,0.179,0.177,0.262,0.263c1.409,1.447,2.767,3.138,3.831,5.047c1.064,1.909,1.835,4.037,2.072,6.361
												c0.274,2.695-0.103,4.91-0.871,6.717c-0.768,1.807-1.927,3.206-3.217,4.268c-0.415,0.341-0.963,0.648-1.591,0.922
												c-0.628,0.274-1.335,0.516-2.069,0.727c-2.174,0.627-4.419,0.94-6.664,0.94c-2.245,0-4.49-0.314-6.663-0.94
												c-0.734-0.212-1.441-0.453-2.069-0.727C239.048,178.089,238.5,177.783,238.085,177.441z"/>
										</g>
										<path style="fill:#5F140F;" d="M241.697,159.71c0,2.281,2.851,4.131,6.369,4.131c3.517,0,6.369-1.849,6.369-4.131
											C254.434,157.428,241.697,157.428,241.697,159.71z"/>
										<g>
											<path style="fill:#FAF2E6;" d="M238.083,178.692c-1.29-1.062-2.45-2.461-3.218-4.269
												c-0.768-1.807-1.145-4.023-0.871-6.718c0.236-2.324,1.008-4.453,2.072-6.362c1.064-1.91,2.422-3.6,3.832-5.048
												c0.083-0.085,0.171-0.173,0.262-0.263c2.198-2.152,5.172-3.328,8.248-3.328l0,0c3.076,0,6.05,1.175,8.248,3.328
												c0.091,0.09,0.179,0.177,0.262,0.263c1.41,1.448,2.767,3.138,3.832,5.048c1.065,1.91,1.836,4.038,2.072,6.362
												c0.274,2.695-0.103,4.911-0.871,6.718c-0.768,1.807-1.927,3.206-3.218,4.269c-0.415,0.341-0.963,0.648-1.591,0.922
												s-1.336,0.516-2.07,0.727c-2.174,0.627-4.419,0.941-6.665,0.941c-2.245,0-4.491-0.314-6.665-0.941
												c-0.734-0.212-1.442-0.453-2.07-0.727C239.046,179.34,238.498,179.033,238.083,178.692z"/>
										</g>
										<path style="fill:#FCFCFC;" d="M243.372,174.332c0,2.782,2.255,5.037,5.036,5.037c2.782,0,5.037-2.255,5.037-5.037
											s-2.255-5.037-5.037-5.037C245.627,169.296,243.372,171.551,243.372,174.332z"/>
										<path style="fill:#CEC2B2;" d="M243.372,174.332c0,2.782,2.255,5.037,5.036,5.037c2.782,0,5.037-2.255,5.037-5.037
											s-2.255-5.037-5.037-5.037C245.627,169.296,243.372,171.551,243.372,174.332z"/>
										<path style="fill:#CEC2B2;" d="M243.372,172.999c0,2.782,2.255,5.036,5.036,5.036c2.782,0,5.037-2.255,5.037-5.036
											c0-2.782-2.255-5.037-5.037-5.037C245.627,167.962,243.372,170.217,243.372,172.999z"/>
										<path style="fill:#FCFCFC;" d="M248.408,178.821c0.605,0,1.193-0.119,1.746-0.354c0.534-0.226,1.014-0.55,1.426-0.962
											c0.413-0.412,0.736-0.892,0.962-1.427c0.234-0.554,0.354-1.141,0.354-1.746s-0.119-1.192-0.354-1.746
											c-0.226-0.534-0.55-1.014-0.962-1.426c-0.412-0.412-0.892-0.736-1.426-0.962c-0.554-0.234-1.141-0.354-1.746-0.354
											c-0.605,0-1.192,0.119-1.746,0.354c-0.534,0.226-1.014,0.55-1.426,0.962c-0.413,0.412-0.736,0.892-0.962,1.426
											c-0.234,0.554-0.354,1.141-0.354,1.746s0.119,1.192,0.354,1.746c0.226,0.534,0.55,1.014,0.962,1.426
											c0.412,0.412,0.892,0.736,1.426,0.962C247.216,178.702,247.803,178.821,248.408,178.821z"/>
										<path style="fill:#FCFCFC;" d="M248.408,178.059c0.251,0,0.499-0.025,0.741-0.074c0.242-0.049,0.478-0.122,0.708-0.219
											c0.222-0.094,0.432-0.208,0.63-0.342c0.198-0.134,0.383-0.287,0.555-0.458c0.171-0.171,0.324-0.357,0.458-0.554
											c0.134-0.198,0.248-0.409,0.342-0.63c0.097-0.23,0.171-0.466,0.22-0.708c0.049-0.242,0.074-0.489,0.074-0.74
											c0-0.251-0.025-0.498-0.074-0.74c-0.049-0.242-0.122-0.479-0.22-0.709c-0.094-0.221-0.208-0.432-0.342-0.63
											c-0.134-0.198-0.286-0.383-0.458-0.555c-0.171-0.171-0.356-0.324-0.554-0.458c-0.198-0.134-0.409-0.248-0.631-0.342
											c-0.229-0.097-0.466-0.17-0.708-0.219c-0.242-0.049-0.49-0.074-0.741-0.074s-0.499,0.025-0.741,0.074
											c-0.242,0.049-0.478,0.122-0.708,0.22c-0.222,0.094-0.433,0.208-0.631,0.342c-0.198,0.133-0.383,0.286-0.554,0.457
											c-0.172,0.172-0.325,0.357-0.458,0.555c-0.134,0.198-0.248,0.408-0.342,0.63c-0.097,0.23-0.171,0.467-0.219,0.709
											c-0.049,0.242-0.074,0.49-0.074,0.74c0,0.251,0.025,0.498,0.074,0.74c0.049,0.242,0.122,0.479,0.219,0.709
											c0.094,0.222,0.208,0.432,0.342,0.63s0.286,0.383,0.458,0.554c0.172,0.172,0.357,0.325,0.555,0.458
											c0.198,0.134,0.408,0.248,0.63,0.341c0.23,0.097,0.466,0.171,0.708,0.22C247.91,178.034,248.157,178.059,248.408,178.059z
											"/>
										<path style="fill:#FCFCFC;" d="M248.408,175.773c0.099,0,0.195-0.009,0.286-0.028c0.094-0.019,0.184-0.047,0.271-0.084
											c0.086-0.036,0.168-0.081,0.245-0.133c0.075-0.051,0.148-0.111,0.215-0.178c0.068-0.068,0.128-0.14,0.178-0.214
											c0.053-0.078,0.097-0.16,0.134-0.246c0.037-0.087,0.065-0.178,0.083-0.268c0.019-0.096,0.029-0.189,0.029-0.289
											c0-0.099-0.009-0.193-0.028-0.286c-0.019-0.093-0.047-0.185-0.085-0.274c-0.035-0.082-0.079-0.164-0.129-0.238
											c-0.053-0.08-0.114-0.152-0.183-0.221c-0.065-0.066-0.138-0.126-0.215-0.178c-0.076-0.052-0.158-0.096-0.244-0.132
											c-0.087-0.037-0.177-0.065-0.267-0.083c-0.095-0.019-0.192-0.029-0.29-0.029s-0.194,0.009-0.285,0.028
											c-0.094,0.019-0.182,0.046-0.27,0.083c-0.087,0.037-0.17,0.081-0.245,0.133c-0.077,0.052-0.149,0.112-0.217,0.179
											c-0.067,0.067-0.128,0.14-0.179,0.217c-0.052,0.076-0.096,0.158-0.131,0.242c-0.038,0.09-0.065,0.178-0.085,0.273
											c-0.019,0.093-0.028,0.187-0.028,0.286c0,0.098,0.009,0.194,0.028,0.285c0.019,0.094,0.047,0.186,0.084,0.272
											c0.036,0.086,0.081,0.169,0.133,0.246c0.049,0.072,0.11,0.146,0.176,0.212c0.07,0.07,0.143,0.131,0.219,0.182
											c0.076,0.051,0.157,0.095,0.243,0.132c0.088,0.037,0.179,0.065,0.268,0.083
											C248.214,175.764,248.31,175.773,248.408,175.773z"/>
										<g>
											<g>
												<path style="fill:#CEC2B2;" d="M239.282,161.878c1.544-0.152,3.089-0.224,4.633-0.283
													c1.544-0.068,3.089-0.077,4.633-0.086c1.544,0.008,3.088,0.018,4.633,0.085c1.544,0.06,3.088,0.131,4.633,0.284
													c-1.544,0.154-3.088,0.225-4.633,0.284c-1.544,0.067-3.089,0.077-4.633,0.085c-1.544-0.009-3.089-0.019-4.633-0.086
													C242.37,162.102,240.826,162.031,239.282,161.878z"/>
											</g>
											<g>
												<path style="fill:#CEC2B2;" d="M243.914,158.144c1.544-0.29,3.089-0.357,4.633-0.369
													c1.544,0.01,3.088,0.077,4.633,0.369c-1.544,0.292-3.089,0.359-4.633,0.369
													C247.003,158.501,245.459,158.434,243.914,158.144z"/>
											</g>
										</g>
									</g>
								</g>
							</g>
							<path style="fill:#D14768;" d="M278.009,270.196c0.002,3.299,0.003,5.567,0.003,6.349l0,0
								c-19.635,4.757-40.123,4.757-59.758,0l0,0c0-0.781,0-3.049,0.003-6.349C237.89,274.952,258.375,274.952,278.009,270.196z"/>
							<path style="fill:#F6B44B;" d="M247.18,259.783h1.967c0.684,0,1.239-0.555,1.239-1.239v-60.35h-4.445v60.35
								C245.942,259.228,246.496,259.783,247.18,259.783z"/>
							<g>
								<path style="fill:#D14768;" d="M261.18,179.972c0,0,2.857,0.572,3.429,2.286c0.572,1.714-2.476,13.524-12.381,17.524
									c-3.809-7.238-4.571-8.381-4.571-8.381L261.18,179.972z"/>
								<path style="fill:#D14768;" d="M235.532,179.972c0,0-2.857,0.572-3.429,2.286c-0.571,1.714,2.476,13.524,12.381,17.524
									c3.809-7.238,4.571-8.381,4.571-8.381L235.532,179.972z"/>
							</g>
							<path style="fill:#F6B44B;" d="M247.364,202.258h1.599c1.074,0,1.984-0.791,2.134-1.854l1.102-7.832h-8.069l1.102,7.832
								C245.38,201.467,246.29,202.258,247.364,202.258z"/>
							<g>
								<path style="fill:#F16781;" d="M261.18,178.068c0,0,2.857,0.572,3.429,2.286c0.572,1.714-2.476,13.524-12.381,17.524
									c-3.809-7.238-4.571-8.381-4.571-8.381L261.18,178.068z"/>
								<path style="fill:#D14768;" d="M260.989,178.229l0.191-0.161c0,0,2.857,0.572,3.429,2.286
									c0.379,1.138-1.797,8.821-5.556,13.619L260.989,178.229z"/>
								<path style="fill:#F16781;" d="M235.532,178.068c0,0-2.857,0.572-3.429,2.286c-0.571,1.714,2.476,13.524,12.381,17.524
									c3.809-7.238,4.571-8.381,4.571-8.381L235.532,178.068z"/>
								<path style="fill:#D14768;" d="M232.103,180.353c0.571-1.714,3.429-2.286,3.429-2.286l0.348,0.295l2.411,16.182
									C234.406,189.702,231.718,181.508,232.103,180.353z"/>
							</g>
							<path style="fill:#D14768;" d="M218.751,196.69c0.484-3.987,1.437-7.357,3.318-10.079c0.115-0.166,0.233-0.329,0.354-0.49
								c1.771,2.74,3.543,7.059,3.409,13.291c-0.264,12.226-1.699,30.915-2.669,33.718c-0.06,0.173-0.156,0.452-0.283,0.82
								c8.373-1.872,26.59-5.885,32.844-6.783c1.661-0.238,3.235,0.201,4.694,1.078c1.53-0.293,2.831-0.523,3.759-0.656
								c0.821-0.118,1.61,0.005,2.364,0.296c-0.006-1.681,0.203-3.318,0.746-4.75c0.015-5.42,0.672-12.462,0.672-12.462
								s1.726-0.503,3.631,1.612c0.699,0.777,1.008,2.646,1.153,4.62c1.356-1.161,2.843-2.387,4.31-3.631l0.765-0.883
								c0.061,7.195,0.103,16.055,0.131,24.878c-1.05,0.611-2.196,1.138-3.433,1.562c0.128,0.38,0.22,0.692,0.268,0.904
								c0.252,1.111-0.832,3.256-4.128,5.737c-0.784,3.488-7.29,10.326-24.99,16.231c-11.099,3.703-20.453,5.603-27.406,5.113
								C218.277,246.026,218.362,199.89,218.751,196.69z"/>
							<path style="fill:#C67F22;" d="M250.386,228.099v30.445c0,0.684-0.555,1.239-1.239,1.239h-1.967
								c-0.684,0-1.239-0.555-1.239-1.239v-29.566C247.52,228.658,249.016,228.361,250.386,228.099z"/>
						</g>
						<g>
							<g>
								<path style="fill:#CEC2B2;" d="M261.078,226.342c1.243-0.233,2.307-0.417,3.098-0.531c0.821-0.118,1.61,0.005,2.364,0.296
									c-0.006-1.681,0.203-3.318,0.746-4.75c0.015-5.42,0.672-12.462,0.672-12.462s1.726-0.503,3.631,1.612
									c0.699,0.777,1.008,2.646,1.153,4.62c1.356-1.162,2.843-2.387,4.31-3.631l7.766-8.958c0.905-1.127,2.552-1.306,3.679-0.401
									c1.127,0.905,1.306,2.552,0.401,3.679l-3.828,4.416c0.926-0.262,1.963-0.038,2.702,0.682
									c0.921,0.897,1.085,2.275,0.488,3.347c0.181,0.109,0.354,0.237,0.512,0.391c1.102,1.072,1.125,2.835,0.052,3.937
									l-3.398,3.238c0.004,0.041,0.008,0.082,0.012,0.123l1.87-1.094c1.057-0.673,2.46-0.362,3.133,0.696
									c0.673,1.057,0.361,2.46-0.696,3.133l-5.051,2.956c-1.498,4.209-5.074,7.665-10.178,9.414
									c0.128,0.38,0.22,0.692,0.268,0.904c0.252,1.111-0.832,3.255-4.128,5.737c-0.492,2.187-3.235,5.692-9.576,9.458V226.342z"/>
								<g>
									<g>
										<path style="fill:#FAF2E6;" d="M270.577,217.097c0,0,0.78,5.708,8.175,9.244c7.395,3.536,19.011,8.326,20.981,8.592
											c1.97,0.267,15.398,5.501,19.471-2.962c9.555-19.852-24.825-22.935-33.723-22.359
											C276.583,210.188,270.577,217.097,270.577,217.097z"/>
										<path style="fill:#CEC2B2;" d="M268.441,218.537c0,0,0.796,5.828,8.347,9.439c7.551,3.611,19.412,8.501,21.424,8.773
											c2.012,0.272,15.723,5.617,19.882-3.024c9.756-20.271-25.349-23.418-34.434-22.831
											C274.574,211.482,268.441,218.537,268.441,218.537z"/>
										<path style="fill:#FAF2E6;" d="M271.592,209.224c0,0,0.78,5.708,8.175,9.244c7.395,3.536,19.011,8.325,20.981,8.592
											c1.97,0.266,15.398,5.501,19.471-2.962c9.555-19.852-24.825-22.934-33.723-22.359
											C277.599,202.315,271.592,209.224,271.592,209.224z"/>
										<path style="fill:#CEC2B2;" d="M269.821,210.753c0,0,0.782,5.721,8.194,9.267c7.413,3.545,19.057,8.346,21.032,8.613
											c1.975,0.267,15.435,5.514,19.518-2.969c9.578-19.9-24.885-22.99-33.804-22.413
											C275.842,203.827,269.821,210.753,269.821,210.753z"/>
										<g>
											<path style="fill:#5F140F;" d="M311.034,180.762c0,0-3.137,18.791-3.891,24.154c-0.754,5.362,9.7,11.153,9.7,11.153
												s5.128-38.948,4.546-40.753S311.034,180.762,311.034,180.762z"/>
											<path style="fill:#5F140F;" d="M311.034,180.762c0,0,8.084,17.794,9.444,5.836c0.766-6.733,1.12-10.631,0.91-11.282
												C320.806,173.511,311.034,180.762,311.034,180.762z"/>
											<path style="fill:#82211A;" d="M316.481,187.006c6.04-6.27,7.142-11.315,0.939-19.523
												c-6.203-8.208-11.976,7.54-9.596,12.26C310.204,184.462,316.481,187.006,316.481,187.006z"/>
										</g>
										<path style="fill:#82211A;" d="M314.19,169.255c-0.388,1.436-7.343,2.176-9.426,4.3c-2.083,2.124,5.739,5.94,11.272,1.573
											c5.533-4.367,2.006-10.013,2.006-10.013S315.815,163.243,314.19,169.255z"/>
										<path style="fill:#CEC2B2;" d="M280.867,179.835c0,0-6.584,5.739-4.91,18.054c1.674,12.315,5.275,31.022,6.577,33.74
											c1.302,2.719,5.846,24.092,19.961,22.209c33.111-4.418,8.398-50.55,0.263-61.346
											C294.623,181.696,280.867,179.835,280.867,179.835z"/>
									</g>
									<path style="fill:#FAF2E6;" d="M261.078,308.877c0,9.706,7.868,17.573,17.573,17.573h16.446l0,0l0,0
										c0,0-0.001-15.497-0.011-33.672c-0.01-18.175-0.029-39.027-0.066-49.739c-0.036-10.712-0.09-21.381-0.169-29.656
										c-0.079-8.275-0.183-14.156-0.321-15.291c-0.138-1.135-0.309-2.226-0.521-3.272c-0.213-1.047-0.467-2.049-0.771-3.006
										c-0.304-0.957-0.658-1.869-1.069-2.735c-0.411-0.866-0.881-1.687-1.416-2.462c-0.535-0.775-1.137-1.503-1.812-2.185
										c-0.675-0.682-1.425-1.317-2.257-1.904c-0.832-0.588-1.746-1.128-2.75-1.621s-2.099-0.937-3.292-1.334
										c-1.193-0.396-2.485-0.744-3.883-1.043c-1.398-0.299-2.903-0.549-4.522-0.749c-1.62-0.2-3.354-0.351-5.211-0.452
										c-1.857-0.101-3.837-0.152-5.948-0.152V308.877z"/>
									<path style="fill:#CEC2B2;" d="M267.026,177.329c1.857,0.101,3.591,0.252,5.211,0.452c1.619,0.201,3.124,0.451,4.522,0.749
										c1.398,0.299,2.69,0.647,3.883,1.043c1.193,0.396,2.288,0.841,3.292,1.334c1.004,0.493,1.918,1.033,2.75,1.621
										c0.832,0.588,1.581,1.223,2.257,1.904c0.676,0.682,1.277,1.41,1.812,2.185c0.535,0.775,1.005,1.596,1.416,2.462
										c0.411,0.867,0.765,1.779,1.069,2.736c0.304,0.957,0.558,1.959,0.771,3.006c0.213,1.047,0.384,2.138,0.521,3.273
										c0.138,1.135,0.242,7.016,0.321,15.291c0.079,8.275,0.133,18.944,0.169,29.656c0.001,0.342,0.002,0.694,0.003,1.056
										l-25.551,0.373c-1.795,0.026-3.272-1.408-3.298-3.203l-0.935-64.015C265.846,177.273,266.445,177.298,267.026,177.329z"/>
									<g>
										<path style="fill:#FAF2E6;" d="M295.086,292.779c-0.133-3.308-0.193-6.616-0.291-9.924l-0.172-9.924
											c-0.103-6.616-0.103-13.232-0.159-19.848l0.062-19.848l0.103-9.925c0.076-3.309,0.113-6.617,0.224-9.926
											c0.148,3.307,0.223,6.615,0.337,9.922l0.216,9.924c0.139,6.617,0.156,13.233,0.2,19.85
											c-0.039,6.617-0.022,13.233-0.107,19.85l-0.146,9.925C295.262,286.163,295.211,289.471,295.086,292.779z"/>
									</g>
								</g>
								<g>
									<path style="fill:#CEC2B2;" d="M287.594,158.448v3.81h7.619v-3.81c0-2.104-1.706-3.81-3.81-3.81
										S287.594,156.344,287.594,158.448z M289.896,158.369c0-0.833,0.675-1.508,1.508-1.508c0.833,0,1.508,0.675,1.508,1.508
										c0,0.833-0.675,1.508-1.508,1.508C290.571,159.877,289.896,159.202,289.896,158.369z"/>
									<path style="fill:#2C0107;" d="M269.474,237.358l44.947-0.657c1.795-0.026,3.23-1.503,3.203-3.298l-0.993-67.949
										c-0.026-1.795-1.503-3.229-3.298-3.203l-44.947,0.657c-1.795,0.026-3.23,1.503-3.203,3.298l0.993,67.949
										C266.202,235.95,267.678,237.384,269.474,237.358z"/>
									<path style="fill:#210006;" d="M316.731,172.276l-5.025-2.268c-1.254-0.536-2.706,0.046-3.242,1.301
										c-0.536,1.254,0.046,2.706,1.3,3.242l1.173,0.529c-0.659,0.211-1.229,0.686-1.522,1.372
										c-0.367,0.859-0.2,1.805,0.339,2.491c-0.302,0.245-0.557,0.555-0.72,0.937h-0.001c-0.536,1.255,0.047,2.706,1.301,3.242
										l3.086,1.393l-2.422-0.44c-1.235-0.199-2.398,0.642-2.597,1.877c-0.199,1.235,0.641,2.398,1.877,2.597l6.707,1.217
										L316.731,172.276z"/>
									<path style="fill:#210006;" d="M266.08,227.605c0.155,0.044,0.308,0.094,0.46,0.153c-0.006-1.681,0.203-3.318,0.746-4.75
										c0.015-5.42,0.672-12.462,0.672-12.462s1.726-0.503,3.631,1.612c0.699,0.777,1.008,2.646,1.153,4.62
										c1.356-1.161,2.843-2.387,4.31-3.631l7.766-8.957c0.905-1.127,2.552-1.306,3.679-0.401
										c1.127,0.905,1.306,2.552,0.401,3.679l-3.828,4.416c0.926-0.262,1.963-0.038,2.702,0.682
										c0.921,0.897,1.085,2.275,0.488,3.347c0.181,0.109,0.354,0.237,0.512,0.391c1.102,1.073,1.125,2.835,0.052,3.937
										l-3.398,3.238c0.004,0.041,0.008,0.082,0.012,0.123l1.87-1.094c1.057-0.673,2.46-0.361,3.133,0.696
										c0.673,1.057,0.361,2.46-0.696,3.133l-5.051,2.956c-1.154,3.243-3.546,6.034-6.916,7.947l-2.962,0.043l-5.341,0.078
										c-0.898,0.013-1.716-0.339-2.313-0.919c-0.005-0.005-0.009-0.011-0.014-0.016c-0.109-0.107-0.209-0.224-0.302-0.346
										c-0.409-0.535-0.659-1.198-0.669-1.923l-0.047-3.201L266.08,227.605z"/>
									
										<rect x="256.841" y="176.744" transform="matrix(0.0146 0.9999 -0.9999 0.0146 486.9288 -94.4875)" style="fill:#FAF2E6;" width="69.125" height="46.121"/>
									<path style="fill:#CEC2B2;" d="M314.047,171.064l-2.341-1.056c-1.254-0.536-2.706,0.046-3.242,1.301
										c-0.536,1.254,0.046,2.706,1.3,3.242l1.173,0.529c-0.659,0.211-1.229,0.686-1.522,1.372
										c-0.367,0.859-0.2,1.805,0.339,2.491c-0.302,0.245-0.557,0.555-0.72,0.937h-0.001c-0.536,1.255,0.047,2.706,1.301,3.242
										l3.086,1.393l-2.422-0.44c-1.235-0.199-2.398,0.642-2.597,1.877c-0.199,1.235,0.641,2.398,1.877,2.597l4.033,0.732
										L314.047,171.064z"/>
									<path style="fill:#CEC2B2;" d="M268.497,210.495c0.656,0.012,1.833,0.264,3.092,1.662c0.699,0.777,1.008,2.646,1.153,4.62
										c1.356-1.161,2.843-2.387,4.31-3.631l7.766-8.957c0.905-1.127,2.552-1.306,3.679-0.401
										c1.127,0.905,1.306,2.552,0.401,3.679l-3.828,4.416c0.926-0.262,1.963-0.038,2.702,0.682
										c0.921,0.897,1.085,2.275,0.488,3.347c0.181,0.109,0.354,0.237,0.512,0.391c1.102,1.073,1.125,2.835,0.052,3.937
										l-3.398,3.238c0.004,0.041,0.008,0.082,0.012,0.123l1.87-1.094c1.057-0.673,2.46-0.361,3.133,0.696
										c0.673,1.057,0.361,2.46-0.696,3.133l-5.051,2.956c-0.688,1.934-1.82,3.705-3.334,5.228l-12.508,0.183L268.497,210.495z"/>
									<path style="fill:#CEC2B2;" d="M285.94,171.922h10.927c3.505,0,6.346-2.841,6.346-6.346v-2.813
										c0-0.623-0.505-1.127-1.127-1.127h-21.365c-0.623,0-1.127,0.505-1.127,1.127v2.813
										C279.594,169.081,282.435,171.922,285.94,171.922z"/>
									<path style="fill:#BAA891;" d="M285.94,170.639h10.927c3.505,0,6.346-2.841,6.346-6.346v-2.813
										c0-0.623-0.505-1.127-1.127-1.127h-21.365c-0.623,0-1.127,0.505-1.127,1.127v2.813
										C279.594,167.798,282.435,170.639,285.94,170.639z"/>
									<g>
										<g>
											<g>
												<path style="fill:#F16781;" d="M275.87,200.782c1.003-0.459-0.661-4.091-1.663-3.632
													c-1.003,0.459-1.052,1.465-0.592,2.468C274.073,200.622,274.867,201.242,275.87,200.782z"/>
												<path style="fill:#D14768;" d="M273.521,197.764c-0.148,0.536-0.043,1.171,0.249,1.81
													c0.265,0.577,0.625,1.045,1.063,1.305c-0.516-0.159-0.932-0.635-1.219-1.26
													C273.306,198.945,273.235,198.274,273.521,197.764z"/>
												<path style="fill:#D14768;" d="M274.819,200.079c0.314-0.144-0.459-1.831-0.773-1.688
													C273.733,198.535,274.506,200.223,274.819,200.079z"/>
												
													<rect x="276.755" y="195.547" transform="matrix(0.414 0.9103 -0.9103 0.414 342.6152 -136.6788)" style="fill:#F16781;" width="1.424" height="4.45"/>
												<path style="fill:#D14768;" d="M279.197,196.202l0.59,1.297l-2.357,1.072c-0.147-0.455-0.273-0.92-0.374-1.395
													L279.197,196.202z"/>
												<path style="fill:#F16781;" d="M281.968,209.913c1.283-1.485-4.094-6.13-5.377-4.645
													c-1.283,1.485-0.618,3.148,0.867,4.431C278.943,210.981,280.685,211.397,281.968,209.913z"/>
												
													<rect x="280.129" y="201.556" transform="matrix(-0.7663 -0.6425 0.6425 -0.7663 366.1674 542.2717)" style="fill:#F16781;" width="3.149" height="5.974"/>
												<path style="fill:#D14768;" d="M280.107,203.996l2.308-2.753l2.413,2.023l-2.262,2.698
													C281.674,205.403,280.848,204.743,280.107,203.996z"/>
												<path style="fill:#F16781;" d="M293.65,208.919c-0.072-0.933-3.451-0.671-3.379,0.262
													c0.072,0.933,0.859,1.266,1.792,1.194C292.996,210.303,293.723,209.852,293.65,208.919z"/>
												<path style="fill:#D14768;" d="M292.796,209.7c-0.024-0.31-1.623-0.186-1.599,0.124
													C291.222,210.134,292.82,210.01,292.796,209.7z"/>
												
													<rect x="291.109" y="204.113" transform="matrix(0.9988 -0.0493 0.0493 0.9988 -9.817 14.6367)" style="fill:#F16781;" width="1.424" height="4.45"/>
												<path style="fill:#D14768;" d="M291.181,207.816l-0.181-3.665l1.422-0.07l0.177,3.589
													C292.135,207.742,291.662,207.791,291.181,207.816z"/>
												<path style="fill:#F16781;" d="M304.637,200.922c-0.932-0.547-2.914,2.829-1.982,3.376
													c0.932,0.547,1.768,0.021,2.315-0.911C305.517,202.455,305.569,201.469,304.637,200.922z"/>
												
													<rect x="300.935" y="199.172" transform="matrix(0.5113 -0.8594 0.8594 0.5113 -25.6608 357.6706)" style="fill:#F16781;" width="1.424" height="4.45"/>
												<path style="fill:#D14768;" d="M301.741,202.281l-2.37-1.41l0.728-1.224l2.462,1.465
													C302.308,201.517,302.034,201.906,301.741,202.281z"/>
												<path style="fill:#D14768;" d="M279.356,209.741c0.386-0.447-1.89-2.413-2.276-1.966
													C276.694,208.222,278.97,210.188,279.356,209.741z"/>
												
													<rect x="277.744" y="184.276" transform="matrix(-0.5721 0.8202 -0.8202 -0.5721 590.7302 64.8245)" style="fill:#F16781;" width="1.424" height="4.45"/>
												<path style="fill:#D14768;" d="M277.638,185.063c-0.186,0.411-0.463,0.839-0.773,1.197l-0.641-0.447l0.815-1.168
													L277.638,185.063z"/>
												
													<rect x="291.749" y="177.347" transform="matrix(0.9688 0.2479 -0.2479 0.9688 53.6413 -66.8923)" style="fill:#F16781;" width="1.424" height="4.45"/>
												
													<rect x="303.889" y="189.551" transform="matrix(-0.0493 -0.9988 0.9988 -0.0493 127.9069 506.8275)" style="fill:#F16781;" width="2.563" height="5.974"/>
												<path style="fill:#D14768;" d="M306.41,191.194l0.973-0.048l0.717,0.154l0.117,2.37l-2.366,0.117
													C305.895,192.936,306.101,192.004,306.41,191.194z"/>
												
													<rect x="282.788" y="177.145" transform="matrix(-0.9169 0.399 -0.399 -0.9169 616.9825 231.8375)" style="fill:#F16781;" width="3.149" height="5.974"/>
												<path style="fill:#D14768;" d="M285.271,178.275c-0.847,0.553-1.901,1.022-2.877,1.279l-0.667-1.532l2.887-1.256
													L285.271,178.275z"/>
												<path style="fill:#F16781;" d="M289.796,179.749c-7.585,0.374-13.431,6.827-13.057,14.412
													c0.374,7.585,6.827,13.431,14.412,13.057c7.585-0.374,13.431-6.827,13.057-14.412
													C303.834,185.22,297.382,179.374,289.796,179.749z"/>
												<path style="fill:#D14768;" d="M298.392,192.31c-1.866,0.092-3.303,1.679-3.211,3.545
													c0.092,1.866,1.679,3.303,3.545,3.211c1.866-0.092,3.303-1.679,3.211-3.545
													C301.844,193.655,300.257,192.218,298.392,192.31z"/>
												<path style="fill:#D14768;" d="M287.348,183.409c-2.504,0.124-4.434,2.253-4.31,4.757
													c0.124,2.504,2.254,4.434,4.757,4.31c2.504-0.124,4.434-2.254,4.31-4.757
													C291.982,185.215,289.852,183.285,287.348,183.409z"/>
												<path style="fill:#D14768;" d="M282.497,193.451c-1.915,0.094-3.39,1.723-3.296,3.638
													c0.095,1.915,1.723,3.39,3.638,3.296c1.915-0.094,3.39-1.723,3.296-3.638
													C286.04,194.832,284.412,193.356,282.497,193.451z"/>
												<path style="fill:#D14768;" d="M288.839,200.979c-0.982,0.048-1.739,0.884-1.69,1.866
													c0.048,0.982,0.884,1.739,1.866,1.69c0.982-0.048,1.739-0.884,1.69-1.866
													C290.656,201.688,289.821,200.931,288.839,200.979z"/>
												<path style="fill:#D14768;" d="M290.381,194.309c-1.129,0.056-1.999,1.016-1.944,2.145s1.016,1.999,2.145,1.944
													c1.129-0.056,2-1.016,1.944-2.145C292.471,195.124,291.51,194.253,290.381,194.309z"/>
												<path style="fill:#F16781;" d="M279.269,178.47c0.892,2,8.134-1.232,7.242-3.232c-0.892-2-2.888-2.117-4.888-1.224
													C279.623,174.907,278.377,176.47,279.269,178.47z"/>
												<path style="fill:#D14768;" d="M279.993,176.273c0.379,0.85,4.55-1.011,4.171-1.861
													C283.785,173.562,279.614,175.423,279.993,176.273z"/>
												<path style="fill:#F16781;" d="M275.052,186.662c0.906,0.629,3.183-2.654,2.277-3.282
													c-0.906-0.629-1.797-0.158-2.426,0.748S274.145,186.034,275.052,186.662z"/>
												<path style="fill:#D14768;" d="M292.323,177.24l1.38,0.353l-0.323,1.261c-0.462-0.059-0.956-0.194-1.373-0.379
													L292.323,177.24z"/>
												<path style="fill:#F16781;" d="M291.191,176.653c-0.273,1.046,3.515,2.035,3.788,0.989
													c0.273-1.046-0.46-1.707-1.506-1.98C292.427,175.389,291.464,175.607,291.191,176.653z"/>
												<path style="fill:#D14768;" d="M292.04,176.132c-0.153,0.584,2.225,1.205,2.378,0.621
													C294.57,176.169,292.193,175.548,292.04,176.132z"/>
												<path style="fill:#D14768;" d="M301.978,184.023l-0.922-1.085l-1.475,1.253c-0.3,0.255-0.336,0.704-0.082,1.004l0,0
													c0.255,0.3,0.704,0.336,1.004,0.082L301.978,184.023z"/>
												<path style="fill:#F16781;" d="M300.403,181.824c-0.798,0.729,1.842,3.62,2.64,2.891
													c0.798-0.729,0.543-1.682-0.187-2.481S301.201,181.095,300.403,181.824z"/>
												<path style="fill:#D14768;" d="M301.747,181.96c-0.253,0.232,1.012,1.617,1.265,1.385
													C303.266,183.114,302.001,181.729,301.747,181.96z"/>
												<path style="fill:#D14768;" d="M296.076,185.117c-1.276,0.063-2.26,1.149-2.197,2.425
													c0.063,1.276,1.149,2.26,2.425,2.197c1.276-0.063,2.26-1.149,2.197-2.425
													C298.439,186.037,297.353,185.054,296.076,185.117z"/>
												<path style="fill:#F16781;" d="M308.142,189.13c-1.87,0.072-1.627,6.4,0.243,6.328c1.87-0.072,2.601-1.518,2.534-3.266
													C310.852,190.445,310.012,189.059,308.142,189.13z"/>
												<path style="fill:#D14768;" d="M309.403,190.317c-1.17,0.045-1.021,3.943,0.15,3.898
													C310.723,194.17,310.573,190.272,309.403,190.317z"/>
												<path style="fill:#D14768;" d="M275.984,206.382c-0.033,0.621,0.165,1.24,0.536,1.827
													c0.269,0.462,0.653,0.903,1.121,1.307c0.453,0.391,0.93,0.7,1.411,0.9c0.573,0.263,1.152,0.385,1.71,0.324
													c-1.06,0.341-2.247-0.126-3.304-1.04C276.337,208.73,275.685,207.544,275.984,206.382z"/>
											</g>
										</g>
										<g>
											<path style="fill:#CCD8FF;" d="M274.207,197.151c0.365-0.167,0.818,0.209,1.198,0.777l1.652-0.752l0.153-0.069
												c-0.257-0.944-0.42-1.928-0.47-2.946c-0.123-2.497,0.431-4.869,1.496-6.945l-1.371-0.957c0,0,0,0,0,0l-0.387-0.27
												c-0.503,0.562-1.07,0.919-1.426,0.673c-0.906-0.629-0.777-1.628-0.149-2.534c0.629-0.906,1.519-1.377,2.426-0.748
												c0.33,0.229,0.237,0.811-0.058,1.426l0.078,0.054l0.289,0.202l1.315,0.918c0.244-0.374,0.509-0.734,0.788-1.082
												c-0.169,1.098-0.231,2.229-0.174,3.382c0.454,9.193,8.274,16.278,17.467,15.824c0.869-0.043,1.719-0.152,2.545-0.321
												c-1.923,1.703-4.33,2.882-7.008,3.292l0.029,0.596h0l0.034,0.685c0.552,0.055,0.991,0.234,1.016,0.564
												c0.073,0.933-0.654,1.384-1.586,1.456c-0.933,0.072-1.72-0.261-1.792-1.194c-0.026-0.334,0.392-0.582,0.942-0.72
												l-0.061-1.244c-2.898,0.143-5.629-0.624-7.92-2.047l-1.966,2.346c0.761,0.919,1.164,1.862,0.702,2.396
												c-0.936,1.084-2.117,1.152-3.264,0.613c-0.008-0.004-0.016-0.007-0.023-0.011c-0.135-0.064-0.269-0.136-0.402-0.216
												c-0.01-0.006-0.02-0.013-0.029-0.019c-0.115-0.07-0.228-0.147-0.341-0.228c-0.029-0.021-0.058-0.042-0.087-0.064
												c-0.122-0.091-0.243-0.186-0.362-0.289c-0.004-0.003-0.007-0.006-0.01-0.009c-0.079-0.069-0.155-0.139-0.229-0.209
												c-0.025-0.024-0.05-0.049-0.075-0.073c-0.053-0.053-0.105-0.106-0.156-0.159c-0.024-0.026-0.049-0.051-0.073-0.078
												c-0.059-0.065-0.116-0.131-0.171-0.198c-0.01-0.012-0.022-0.025-0.032-0.037c-0.061-0.076-0.119-0.153-0.174-0.231
												c-0.021-0.03-0.041-0.06-0.061-0.089c-0.035-0.052-0.068-0.104-0.1-0.156c-0.02-0.033-0.04-0.065-0.059-0.098
												c-0.032-0.057-0.062-0.114-0.091-0.171c-0.016-0.032-0.033-0.064-0.047-0.096c-0.033-0.072-0.064-0.143-0.091-0.216
												c-0.014-0.037-0.026-0.074-0.038-0.111c-0.016-0.047-0.03-0.094-0.043-0.141c-0.011-0.04-0.022-0.08-0.031-0.12
												c-0.011-0.048-0.02-0.096-0.028-0.144c-0.008-0.05-0.016-0.099-0.022-0.149c-0.007-0.064-0.012-0.128-0.014-0.192
												c-0.001-0.042,0-0.083,0.001-0.125c0.001-0.043,0.003-0.087,0.007-0.131c0.004-0.043,0.008-0.086,0.014-0.129
												c0.006-0.045,0.015-0.091,0.024-0.136c0.084-0.417,0.285-0.832,0.632-1.234c0.43-0.497,1.319-0.305,2.263,0.224
												l1.253-1.495c0,0,0,0,0,0l0.654-0.779c-1.338-1.335-2.402-2.948-3.103-4.75l-1.64,0.746
												c0.227,0.719,0.246,1.389-0.148,1.57c-0.451,0.206-0.858,0.193-1.213,0.027c-0.014-0.006-0.027-0.014-0.04-0.02
												c-0.044-0.022-0.086-0.046-0.128-0.073c-0.016-0.01-0.031-0.02-0.046-0.03c-0.041-0.028-0.081-0.059-0.12-0.091
												c-0.012-0.01-0.025-0.019-0.037-0.03c-0.101-0.087-0.196-0.189-0.284-0.301c-0.013-0.016-0.025-0.034-0.038-0.05
												c-0.031-0.041-0.061-0.083-0.09-0.127c-0.014-0.021-0.027-0.042-0.041-0.063c-0.028-0.044-0.055-0.09-0.081-0.137
												c-0.011-0.02-0.023-0.039-0.034-0.06c-0.036-0.067-0.071-0.136-0.104-0.208c-0.035-0.077-0.067-0.155-0.096-0.232
												c-0.006-0.016-0.012-0.033-0.018-0.049c-0.026-0.072-0.049-0.143-0.069-0.215c-0.001-0.003-0.002-0.007-0.003-0.01
												C273.2,198.292,273.373,197.533,274.207,197.151z"/>
										</g>
									</g>
									
										<rect x="296.768" y="215.116" transform="matrix(-1 -1.224647e-16 1.224647e-16 -1 605.5358 430.7641)" style="fill:#A8ACE9;" width="12" height="0.533"/>
									
										<rect x="292.958" y="216.499" transform="matrix(-1 -1.224647e-16 1.224647e-16 -1 601.7262 433.5315)" style="fill:#A8ACE9;" width="15.81" height="0.533"/>
									
										<rect x="292.958" y="217.883" transform="matrix(-1 -1.224647e-16 1.224647e-16 -1 601.7262 436.2987)" style="fill:#A8ACE9;" width="15.81" height="0.533"/>
									
										<rect x="292.958" y="219.267" transform="matrix(-1 -1.224647e-16 1.224647e-16 -1 601.7262 439.0659)" style="fill:#A8ACE9;" width="15.81" height="0.533"/>
									
										<rect x="292.958" y="220.65" transform="matrix(-1 -1.224647e-16 1.224647e-16 -1 601.7262 441.8333)" style="fill:#A8ACE9;" width="15.81" height="0.533"/>
									
										<rect x="304.069" y="223.758" transform="matrix(-1 -1.224647e-16 1.224647e-16 -1 612.8375 448.0482)" style="fill:#A8ACE9;" width="4.699" height="0.533"/>
									<path style="fill:none;stroke:#A8ACE9;stroke-width:0.4474;stroke-linecap:round;stroke-miterlimit:10;" d="
										M307.746,230.483l-0.531-1.286c-0.151-0.365-0.655-0.36-0.818-0.001c-0.002,0.004-0.004,0.008-0.006,0.012
										c-0.055-0.142-0.258-1.28-0.258-1.28s-0.257,1.155-0.432,1.306c-0.91,0.049-1.889,0.064-2.734,0.043"/>
								</g>
								<g>
									<path style="fill:#82211A;" d="M309.764,173.306l7.606,3.432c1.254,0.536,2.706-0.046,3.242-1.3l0,0
										c0.536-1.254-0.046-2.706-1.3-3.242l-7.606-3.432c-1.254-0.536-2.706,0.046-3.242,1.301l0,0
										C307.928,171.319,308.51,172.77,309.764,173.306z"/>
									<path style="fill:#82211A;" d="M310.717,178.449l7.606,3.432c1.254,0.536,2.706-0.046,3.242-1.3l0,0
										c0.536-1.254-0.046-2.706-1.301-3.242l-7.606-3.432c-1.254-0.536-2.706,0.046-3.242,1.301l0,0
										C308.88,176.462,309.463,177.913,310.717,178.449z"/>
									<path style="fill:#82211A;" d="M310.336,181.878l7.606,3.432c1.254,0.536,2.706-0.046,3.242-1.301l0,0
										c0.536-1.254-0.046-2.706-1.301-3.242l-7.606-3.432c-1.254-0.536-2.706,0.046-3.242,1.3v0
										C308.499,179.89,309.082,181.342,310.336,181.878z"/>
									<path style="fill:#5F140F;" d="M310.28,187.304l7.531,1.367c1.235,0.199,2.398-0.641,2.597-1.877l0,0
										c0.199-1.235-0.642-2.398-1.877-2.597L311,182.831c-1.235-0.199-2.398,0.641-2.597,1.877l0,0
										C308.204,185.943,309.044,187.106,310.28,187.304z"/>
								</g>
								<g>
									<path style="fill:#CCD8FF;" d="M281.968,209.912c0.392-0.454,0.156-1.206-0.391-1.986l-2.41,2.78
										C280.163,211.026,281.157,210.851,281.968,209.912z"/>
									<path style="fill:#CCD8FF;" d="M288.496,203.788c-1.126-0.905-2.774-0.725-3.679,0.401l-1.095,1.262
										c1.622,0.917,3.439,1.519,5.372,1.712C289.754,206.06,289.526,204.615,288.496,203.788z"/>
								</g>
							</g>
							<g>
								<g>
									<path style="fill:#FAF2E6;" d="M235.758,177.178c-2.111,0-4.091,0.051-5.948,0.152c-1.857,0.101-3.591,0.252-5.211,0.452
										c-1.62,0.2-3.124,0.45-4.523,0.749c-1.398,0.299-2.69,0.647-3.883,1.043c-1.193,0.396-2.288,0.841-3.292,1.334
										s-1.918,1.033-2.75,1.621c-0.832,0.588-1.581,1.223-2.257,1.904c-0.675,0.682-1.277,1.41-1.812,2.185
										c-0.535,0.775-1.005,1.595-1.416,2.462c-0.412,0.866-0.765,1.778-1.069,2.735c-0.304,0.957-0.558,1.959-0.771,3.006
										c-0.213,1.046-0.384,2.138-0.521,3.272c-0.138,1.135-0.242,7.016-0.321,15.291c-0.079,8.275-0.132,18.944-0.169,29.656
										c-0.036,10.712-0.055,31.565-0.066,49.739c-0.01,18.175-0.011,33.672-0.011,33.672h0l0,0h16.446
										c9.705,0,17.573-7.868,17.573-17.573V177.178z"/>
									<path style="fill:#CEC2B2;" d="M201.984,214.317c0.079-8.275,0.183-14.156,0.321-15.291
										c0.138-1.135,0.309-2.226,0.521-3.272c0.213-1.047,0.467-2.049,0.771-3.006c0.304-0.957,0.658-1.869,1.069-2.735
										c0.174-0.366,0.361-0.723,0.556-1.073c6.516-5.627,11.93-7.475,11.93-7.475s8.943,4.877,8.679,17.103
										c-0.264,12.226-0.766,30.915-1.736,33.717c-0.06,0.174-0.156,0.452-0.283,0.82c3.24-0.724,7.021-1.77,11.945-2.83v33.514
										c-14.751,3.733-25.215,3.099-29.211-3.857c-1.458-1.396-3.162-5.811-4.744-11.741c0.004-1.533,0.008-2.949,0.012-4.219
										C201.851,233.261,201.905,222.592,201.984,214.317z"/>
								</g>
								<g>
									<g>
										<path style="fill:#82211A;" d="M267.265,223.46c1.405,2.998,5.136-2.222,4.519-9.822c-0.214-2.635-0.61-5.79-1.636-6.811
											c-2.018-2.008-3.714-1.411-3.714-1.411S265.86,220.463,267.265,223.46z"/>
										<path style="fill:#82211A;" d="M269.189,234.6c11.581-1.688,17.707-10.621,14.838-19.676
											c-0.999-3.153-0.654-15.356-4.788-10.96c-3.97,4.223-9.696,8.839-11.797,11.86
											C263.211,221.907,269.189,234.6,269.189,234.6z"/>
										<path style="fill:#82211A;" d="M279.113,211.593l8.06-10.399c0.842-1.175,0.572-2.809-0.602-3.651l0,0
											c-1.175-0.842-2.81-0.572-3.652,0.602l-8.06,10.399c-0.842,1.175-0.572,2.81,0.602,3.652l0,0
											C276.636,213.037,278.271,212.768,279.113,211.593z"/>
										<path style="fill:#82211A;" d="M277.009,220.47l9.588-10.197c1.011-1.159,0.89-2.917-0.268-3.928l0,0
											c-1.159-1.01-2.917-0.89-3.928,0.268l-9.588,10.197c-1.01,1.159-0.89,2.917,0.268,3.928l0,0
											C274.24,221.749,275.998,221.629,277.009,220.47z"/>
										<path style="fill:#82211A;" d="M278.212,224.148l9.588-10.197c1.011-1.159,0.89-2.917-0.268-3.928l0,0
											c-1.159-1.011-2.917-0.89-3.928,0.268l-9.588,10.197c-1.01,1.159-0.89,2.917,0.268,3.928v0
											C275.443,225.427,277.202,225.307,278.212,224.148z"/>
										<path style="fill:#82211A;" d="M279.538,226.28l9.516-6.294c1.019-0.73,1.253-2.147,0.523-3.166l0,0
											c-0.73-1.019-2.147-1.253-3.166-0.523l-9.516,6.294c-1.019,0.73-1.253,2.147-0.523,3.166l0,0
											C277.102,226.776,278.52,227.01,279.538,226.28z"/>
									</g>
									<g>
										<g>
											<path style="fill:#FAF2E6;" d="M216.014,179.782c0,0,7.333,4.481,7.74,16.703c0.407,12.222,0,30.962-0.815,33.813
												c-0.815,2.852-9.37,33.406-15.073,28.517c-5.703-4.889-17.11-51.331-11-63.145
												C202.977,183.856,216.014,179.782,216.014,179.782z"/>
											<path style="fill:#F16781;" d="M237.609,229.443c0,0,20.205-5.773,25.978-6.928c5.773-1.154,10.68,9.525,11.257,11.546
												c0.577,2.021-3.175,7.793-17.03,13.278c-13.855,5.484-23.957,6.639-27.71,0.866
												C226.352,242.431,237.609,229.443,237.609,229.443z"/>
										</g>
										<path style="fill:#FAF2E6;" d="M218.458,232.335c0,0,28.517-8.148,36.665-9.777c8.148-1.63,15.073,13.444,15.888,16.296
											c0.815,2.852-4.481,11-24.036,18.74c-19.555,7.74-33.813,9.37-39.109,1.222
											C202.57,250.668,218.458,232.335,218.458,232.335z"/>
									</g>
								</g>
							</g>
						</g>
					</g>
				</g>
			</g>
		</g>
	</g>
</g>
</svg>
